name Walk5.mot
datacolumns 19
datarows 30
range 2.27500000 2.42000000
endheader

                time	   L_ground_force_vx	   L_ground_force_vy	   L_ground_force_vz	   L_ground_force_px	   L_ground_force_py	   L_ground_force_pz	   R_ground_force_vx	   R_ground_force_vy	   R_ground_force_vz	   R_ground_force_px	   R_ground_force_py	   R_ground_force_pz	   L_ground_torque_x	   L_ground_torque_y	   L_ground_torque_z	   R_ground_torque_x	   R_ground_torque_y	   R_ground_torque_z	
          2.27500000	         -0.00000000	          0.00000000	         -0.00000000	         -0.00000000	          0.00000000	         -0.00000000	         13.83455006	         52.40241374	         14.70477054	          0.47652065	          0.00000000	          0.10145347	          0.00000000	         -0.00000000	          0.00000000	          0.00000000	         -3.08349287	          0.00000000	
          2.28000000	         -0.00000000	         -0.00000000	         -0.00000000	         -0.00000000	          0.00000000	         -0.00000000	          9.34949008	         34.68224481	         11.82442122	          0.41822052	          0.00000000	          0.08925173	          0.00000000	         -0.00000000	          0.00000000	          0.00000000	         -2.12458245	          0.00000000	
          2.28500000	         -0.00000000	         -0.00000000	          0.00000000	         -0.00000000	          0.00000000	         -0.00000000	          5.73164878	         20.73135573	          9.08228536	          0.35229575	          0.00000000	          0.07538007	          0.00000000	         -0.00000000	          0.00000000	          0.00000000	         -1.34411697	          0.00000000	
          2.29000000	         -0.00000000	         -0.00000000	          0.00000000	         -0.00000000	          0.00000000	         -0.00000000	          2.95693786	         10.16950927	          6.61151173	          0.28302210	          0.00000000	          0.06071851	          0.00000000	         -0.00000000	          0.00000000	          0.00000000	         -0.73757607	          0.00000000	
          2.29500000	         -0.00000000	         -0.00000000	          0.00000000	         -0.00000000	          0.00000000	         -0.00000000	          0.94368164	          2.59248926	          4.50425151	          0.21623119	          0.00000000	          0.04651802	          0.00000000	         -0.00000000	          0.00000000	          0.00000000	         -0.29028236	          0.00000000	
          2.30000000	         -0.00000000	         -0.00000000	          0.00000000	          0.00000000	          0.00000000	         -0.00000000	         -0.42201439	         -2.47154145	          2.79667451	          0.15629821	          0.00000000	          0.03373251	          0.00000000	         -0.00000000	          0.00000000	          0.00000000	          0.01951625	          0.00000000	
          2.30500000	         -0.00000000	         -0.00000000	          0.00000000	          0.00000000	          0.00000000	          0.00000000	         -1.26443256	         -5.52353719	          1.48045533	          0.10550305	          0.00000000	          0.02286558	          0.00000000	         -0.00000000	          0.00000000	          0.00000000	          0.21664060	          0.00000000	
          2.31000000	         -0.00000000	         -0.00000000	          0.00000000	          0.00000000	          0.00000000	          0.00000000	         -1.70465768	         -7.04387794	          0.51930335	          0.06458508	          0.00000000	          0.01408843	          0.00000000	         -0.00000000	          0.00000000	          0.00000000	          0.32591898	          0.00000000	
          2.31500000	         -0.00000000	         -0.00000000	          0.00000000	          0.00000000	          0.00000000	          0.00000000	         -1.85214772	         -7.46175743	         -0.13813541	          0.03323728	          0.00000000	          0.00734559	          0.00000000	         -0.00000000	          0.00000000	          0.00000000	          0.37022083	          0.00000000	
          2.32000000	         -0.00000000	         -0.00000000	          0.00000000	          0.00000000	          0.00000000	          0.00000000	         -1.80024773	         -7.13960066	         -0.54881332	          0.01050588	          0.00000000	          0.00244059	          0.00000000	         -0.00000000	          0.00000000	          0.00000000	          0.36935076	          0.00000000	
          2.32500000	         -0.00000000	         -0.00000000	          0.00000000	          0.00000000	          0.00000000	          0.00000000	         -1.62458744	         -6.36835168	         -0.76876860	         -0.00490222	          0.00000000	         -0.00089791	          0.00000000	         -0.00000000	          0.00000000	          0.00000000	          0.33958162	          0.00000000	
          2.33000000	         -0.00000000	         -0.00000000	          0.00000000	          0.00000000	          0.00000000	          0.00000000	         -1.38345468	         -5.37010504	         -0.84902136	         -0.01439543	          0.00000000	         -0.00296781	          0.00000000	         -0.00000000	          0.00000000	          0.00000000	          0.29363445	          0.00000000	
          2.33500000	         -0.00000000	         -0.00000000	          0.00000000	          0.00000000	          0.00000000	          0.00000000	         -1.11940638	         -4.30523842	         -0.83333858	         -0.01934473	          0.00000000	         -0.00406048	          0.00000000	         -0.00000000	          0.00000000	          0.00000000	          0.24094649	          0.00000000	
          2.34000000	          0.00000000	         -0.00000000	          0.00000000	          0.00000000	          0.00000000	          0.00000000	         -0.86154580	         -3.28186779	         -0.75737451	         -0.02098869	          0.00000000	         -0.00444006	          0.00000000	         -0.00000000	          0.00000000	          0.00000000	          0.18810276	          0.00000000	
          2.34500000	          0.00000000	         -0.00000000	          0.00000000	          0.00000000	          0.00000000	          0.00000000	         -0.62804696	         -2.36604397	         -0.64876106	         -0.02038298	          0.00000000	         -0.00433231	          0.00000000	          0.00000000	          0.00000000	          0.00000000	          0.13933845	          0.00000000	
          2.35000000	          0.00000000	          0.00000000	          0.00000000	          0.00000000	          0.00000000	          0.00000000	         -0.42863775	         -1.59161842	         -0.52780020	         -0.01838250	          0.00000000	         -0.00392059	          0.00000000	          0.00000000	          0.00000000	          0.00000000	          0.09704685	          0.00000000	
          2.35500000	          0.00000000	          0.00000000	         -0.00000000	          0.00000000	          0.00000000	          0.00000000	         -0.26686043	         -0.96911655	         -0.40848773	         -0.01564580	          0.00000000	         -0.00334648	          0.00000000	          0.00000000	          0.00000000	          0.00000000	          0.06225084	          0.00000000	
          2.36000000	          0.00000000	          0.00000000	         -0.00000000	          0.00000000	          0.00000000	          0.00000000	         -0.14201033	         -0.49327275	         -0.29966851	         -0.01265341	          0.00000000	         -0.00271366	          0.00000000	          0.00000000	          0.00000000	          0.00000000	          0.03501354	          0.00000000	
          2.36500000	          0.00000000	          0.00000000	         -0.00000000	          0.00000000	          0.00000000	          0.00000000	         -0.05071508	         -0.14911144	         -0.20618470	         -0.00973372	          0.00000000	         -0.00209322	          0.00000000	          0.00000000	          0.00000000	          0.00000000	          0.01477764	          0.00000000	
          2.37000000	          0.00000000	          0.00000000	         -0.00000000	         -0.00000000	          0.00000000	          0.00000000	          0.01184174	          0.08338546	         -0.12992863	         -0.00709156	          0.00000000	         -0.00152980	          0.00000000	          0.00000000	          0.00000000	          0.00000000	          0.00063202	          0.00000000	
          2.37500000	          0.00000000	          0.00000000	         -0.00000000	         -0.00000000	          0.00000000	         -0.00000000	          0.05102169	          0.22588643	         -0.07075130	         -0.00483633	          0.00000000	         -0.00104750	          0.00000000	          0.00000000	          0.00000000	          0.00000000	         -0.00848928	          0.00000000	
          2.38000000	          0.00000000	          0.00000000	         -0.00000000	         -0.00000000	          0.00000000	         -0.00000000	          0.07211182	          0.29940466	         -0.02720646	         -0.00300761	          0.00000000	         -0.00065536	          0.00000000	          0.00000000	          0.00000000	          0.00000000	         -0.01366719	          0.00000000	
          2.38500000	          0.00000000	          0.00000000	         -0.00000000	         -0.00000000	          0.00000000	         -0.00000000	          0.07993335	          0.32287119	          0.00286971	         -0.00159702	          0.00000000	         -0.00035206	          0.00000000	          0.00000000	          0.00000000	          0.00000000	         -0.01590678	          0.00000000	
          2.39000000	          0.00000000	          0.00000000	         -0.00000000	         -0.00000000	          0.00000000	         -0.00000000	          0.07862738	          0.31238461	          0.02193002	         -0.00056613	          0.00000000	         -0.00012972	          0.00000000	          0.00000000	          0.00000000	          0.00000000	         -0.01608495	          0.00000000	
          2.39500000	          0.00000000	          0.00000000	         -0.00000000	         -0.00000000	          0.00000000	         -0.00000000	          0.07157141	          0.28095393	          0.03241862	          0.00013974	          0.00000000	          0.00002313	          0.00000000	          0.00000000	          0.00000000	          0.00000000	         -0.01492708	          0.00000000	
          2.40000000	          0.00000000	          0.00000000	         -0.00000000	         -0.00000000	          0.00000000	         -0.00000000	          0.06138612	          0.23857798	          0.03658084	          0.00058134	          0.00000000	          0.00011931	          0.00000000	          0.00000000	          0.00000000	          0.00000000	         -0.01300401	          0.00000000	
          2.40500000	          0.00000000	          0.00000000	         -0.00000000	         -0.00000000	          0.00000000	         -0.00000000	          0.04999959	          0.19253447	          0.03635689	          0.00081856	          0.00000000	          0.00017156	          0.00000000	          0.00000000	          0.00000000	          0.00000000	         -0.01074232	          0.00000000	
          2.41000000	          0.00000000	          0.00000000	         -0.00000000	         -0.00000000	          0.00000000	         -0.00000000	          0.03874327	          0.14778051	          0.03333788	          0.00090594	          0.00000000	          0.00019150	          0.00000000	          0.00000000	          0.00000000	          0.00000000	         -0.00844236	          0.00000000	
          2.41500000	         -0.00000000	          0.00000000	         -0.00000000	         -0.00000000	          0.00000000	         -0.00000000	          0.02846068	          0.10739301	          0.02876523	          0.00089033	          0.00000000	          0.00018914	          0.00000000	         -0.00000000	          0.00000000	          0.00000000	         -0.00629975	          0.00000000	
          2.42000000	         -0.00000000	         -0.00000000	         -0.00000000	         -0.00000000	          0.00000000	         -0.00000000	          0.01961576	          0.07299981	          0.02355789	          0.00080990	          0.00000000	          0.00017266	          0.00000000	         -0.00000000	          0.00000000	          0.00000000	         -0.00442750	          0.00000000	
